<mxfile host="65bd71144e">
    <diagram id="kgpKYQtTHZ0yAKxKKP6v" name="Page-1">
        <mxGraphModel dx="477" dy="712" grid="1" gridSize="10" guides="1" tooltips="1" connect="1" arrows="1" fold="1" page="1" pageScale="1" pageWidth="850" pageHeight="1100" math="0" shadow="0">
            <root>
                <mxCell id="0"/>
                <mxCell id="1" parent="0"/>
                <mxCell id="3nuBFxr9cyL0pnOWT2aG-1" value="User Screen" style="shape=umlLifeline;perimeter=lifelinePerimeter;container=1;collapsible=0;recursiveResize=0;rounded=0;shadow=0;strokeWidth=1;" parent="1" vertex="1">
                    <mxGeometry x="120" y="80" width="100" height="300" as="geometry"/>
                </mxCell>
                <mxCell id="3nuBFxr9cyL0pnOWT2aG-2" value="" style="points=[];perimeter=orthogonalPerimeter;rounded=0;shadow=0;strokeWidth=1;" parent="3nuBFxr9cyL0pnOWT2aG-1" vertex="1">
                    <mxGeometry x="45" y="70" width="10" height="210" as="geometry"/>
                </mxCell>
                <mxCell id="3nuBFxr9cyL0pnOWT2aG-3" value="User Input" style="verticalAlign=bottom;startArrow=oval;endArrow=block;startSize=8;shadow=0;strokeWidth=1;" parent="3nuBFxr9cyL0pnOWT2aG-1" target="3nuBFxr9cyL0pnOWT2aG-2" edge="1">
                    <mxGeometry relative="1" as="geometry">
                        <mxPoint x="-15" y="70" as="sourcePoint"/>
                    </mxGeometry>
                </mxCell>
                <mxCell id="3nuBFxr9cyL0pnOWT2aG-5" value="Loading Area Image" style="shape=umlLifeline;perimeter=lifelinePerimeter;container=1;collapsible=0;recursiveResize=0;rounded=0;shadow=0;strokeWidth=1;" parent="1" vertex="1">
                    <mxGeometry x="270" y="80" width="120" height="300" as="geometry"/>
                </mxCell>
                <mxCell id="3nuBFxr9cyL0pnOWT2aG-6" value="" style="points=[];perimeter=orthogonalPerimeter;rounded=0;shadow=0;strokeWidth=1;" parent="3nuBFxr9cyL0pnOWT2aG-5" vertex="1">
                    <mxGeometry x="55" y="80" width="10" height="120" as="geometry"/>
                </mxCell>
                <mxCell id="3nuBFxr9cyL0pnOWT2aG-8" value="main program start" style="verticalAlign=bottom;endArrow=block;entryX=0;entryY=0;shadow=0;strokeWidth=1;" parent="1" source="3nuBFxr9cyL0pnOWT2aG-2" target="3nuBFxr9cyL0pnOWT2aG-6" edge="1">
                    <mxGeometry relative="1" as="geometry">
                        <mxPoint x="275" y="160" as="sourcePoint"/>
                        <mxPoint as="offset"/>
                    </mxGeometry>
                </mxCell>
                <mxCell id="x1gy2OudxDAvXsv-l1YI-1" value="Camera" style="shape=umlLifeline;perimeter=lifelinePerimeter;container=1;collapsible=0;recursiveResize=0;rounded=0;shadow=0;strokeWidth=1;" parent="1" vertex="1">
                    <mxGeometry x="430" y="80" width="100" height="300" as="geometry"/>
                </mxCell>
                <mxCell id="x1gy2OudxDAvXsv-l1YI-2" value="" style="points=[];perimeter=orthogonalPerimeter;rounded=0;shadow=0;strokeWidth=1;" parent="x1gy2OudxDAvXsv-l1YI-1" vertex="1">
                    <mxGeometry x="45" y="80" width="10" height="70" as="geometry"/>
                </mxCell>
                <mxCell id="x1gy2OudxDAvXsv-l1YI-3" value="Image Processor" style="shape=umlLifeline;perimeter=lifelinePerimeter;container=1;collapsible=0;recursiveResize=0;rounded=0;shadow=0;strokeWidth=1;" parent="1" vertex="1">
                    <mxGeometry x="570" y="80" width="100" height="300" as="geometry"/>
                </mxCell>
                <mxCell id="x1gy2OudxDAvXsv-l1YI-4" value="" style="points=[];perimeter=orthogonalPerimeter;rounded=0;shadow=0;strokeWidth=1;" parent="x1gy2OudxDAvXsv-l1YI-3" vertex="1">
                    <mxGeometry x="45" y="140" width="10" height="70" as="geometry"/>
                </mxCell>
                <mxCell id="x1gy2OudxDAvXsv-l1YI-5" value="User Interface" style="shape=umlLifeline;perimeter=lifelinePerimeter;container=1;collapsible=0;recursiveResize=0;rounded=0;shadow=0;strokeWidth=1;" parent="1" vertex="1">
                    <mxGeometry x="710" y="80" width="100" height="300" as="geometry"/>
                </mxCell>
                <mxCell id="x1gy2OudxDAvXsv-l1YI-6" value="" style="points=[];perimeter=orthogonalPerimeter;rounded=0;shadow=0;strokeWidth=1;" parent="x1gy2OudxDAvXsv-l1YI-5" vertex="1">
                    <mxGeometry x="45" y="170" width="10" height="70" as="geometry"/>
                </mxCell>
                <mxCell id="x1gy2OudxDAvXsv-l1YI-12" style="edgeStyle=orthogonalEdgeStyle;rounded=0;orthogonalLoop=1;jettySize=auto;html=1;" parent="1" source="3nuBFxr9cyL0pnOWT2aG-6" target="x1gy2OudxDAvXsv-l1YI-1" edge="1">
                    <mxGeometry relative="1" as="geometry">
                        <Array as="points">
                            <mxPoint x="420" y="180"/>
                            <mxPoint x="420" y="180"/>
                        </Array>
                    </mxGeometry>
                </mxCell>
                <mxCell id="x1gy2OudxDAvXsv-l1YI-13" value="capture image" style="edgeLabel;html=1;align=center;verticalAlign=middle;resizable=0;points=[];" parent="x1gy2OudxDAvXsv-l1YI-12" vertex="1" connectable="0">
                    <mxGeometry x="-0.2957" y="-2" relative="1" as="geometry">
                        <mxPoint x="14" y="-12" as="offset"/>
                    </mxGeometry>
                </mxCell>
                <mxCell id="x1gy2OudxDAvXsv-l1YI-16" style="edgeStyle=orthogonalEdgeStyle;rounded=0;orthogonalLoop=1;jettySize=auto;html=1;strokeColor=#000000;fillColor=none;dashed=1;" parent="1" source="x1gy2OudxDAvXsv-l1YI-2" target="3nuBFxr9cyL0pnOWT2aG-6" edge="1">
                    <mxGeometry relative="1" as="geometry">
                        <mxPoint x="340" y="240" as="targetPoint"/>
                        <Array as="points">
                            <mxPoint x="370" y="210"/>
                            <mxPoint x="370" y="210"/>
                        </Array>
                    </mxGeometry>
                </mxCell>
                <mxCell id="x1gy2OudxDAvXsv-l1YI-18" value="return image" style="edgeLabel;html=1;align=center;verticalAlign=middle;resizable=0;points=[];" parent="x1gy2OudxDAvXsv-l1YI-16" vertex="1" connectable="0">
                    <mxGeometry x="-0.1778" y="-1" relative="1" as="geometry">
                        <mxPoint x="-17" y="-9" as="offset"/>
                    </mxGeometry>
                </mxCell>
                <mxCell id="x1gy2OudxDAvXsv-l1YI-19" style="edgeStyle=orthogonalEdgeStyle;rounded=0;orthogonalLoop=1;jettySize=auto;html=1;strokeColor=#000000;fillColor=none;" parent="1" source="3nuBFxr9cyL0pnOWT2aG-6" edge="1">
                    <mxGeometry relative="1" as="geometry">
                        <mxPoint x="613" y="260" as="targetPoint"/>
                        <Array as="points">
                            <mxPoint x="510" y="260"/>
                            <mxPoint x="510" y="260"/>
                        </Array>
                    </mxGeometry>
                </mxCell>
                <mxCell id="x1gy2OudxDAvXsv-l1YI-20" value="process for desired objects" style="edgeLabel;html=1;align=center;verticalAlign=middle;resizable=0;points=[];" parent="x1gy2OudxDAvXsv-l1YI-19" vertex="1" connectable="0">
                    <mxGeometry x="0.2654" y="3" relative="1" as="geometry">
                        <mxPoint x="-10" y="-7" as="offset"/>
                    </mxGeometry>
                </mxCell>
                <mxCell id="x1gy2OudxDAvXsv-l1YI-21" style="edgeStyle=orthogonalEdgeStyle;rounded=0;orthogonalLoop=1;jettySize=auto;html=1;strokeColor=#000000;fillColor=none;" parent="1" source="x1gy2OudxDAvXsv-l1YI-4" edge="1">
                    <mxGeometry relative="1" as="geometry">
                        <mxPoint x="758" y="280" as="targetPoint"/>
                        <Array as="points">
                            <mxPoint x="758" y="280"/>
                        </Array>
                    </mxGeometry>
                </mxCell>
                <mxCell id="x1gy2OudxDAvXsv-l1YI-22" value="inform UI creation" style="edgeLabel;html=1;align=center;verticalAlign=middle;resizable=0;points=[];" parent="x1gy2OudxDAvXsv-l1YI-21" vertex="1" connectable="0">
                    <mxGeometry x="0.1686" y="4" relative="1" as="geometry">
                        <mxPoint x="-9" y="-5" as="offset"/>
                    </mxGeometry>
                </mxCell>
                <mxCell id="x1gy2OudxDAvXsv-l1YI-23" style="edgeStyle=orthogonalEdgeStyle;rounded=0;orthogonalLoop=1;jettySize=auto;html=1;strokeColor=#000000;fillColor=none;" parent="1" source="x1gy2OudxDAvXsv-l1YI-6" edge="1">
                    <mxGeometry relative="1" as="geometry">
                        <Array as="points">
                            <mxPoint x="460" y="300"/>
                            <mxPoint x="460" y="300"/>
                        </Array>
                        <mxPoint x="170" y="300" as="targetPoint"/>
                    </mxGeometry>
                </mxCell>
                <mxCell id="x1gy2OudxDAvXsv-l1YI-24" value="display UI" style="edgeLabel;html=1;align=center;verticalAlign=middle;resizable=0;points=[];" parent="x1gy2OudxDAvXsv-l1YI-23" vertex="1" connectable="0">
                    <mxGeometry x="0.1698" y="-1" relative="1" as="geometry">
                        <mxPoint y="-7" as="offset"/>
                    </mxGeometry>
                </mxCell>
            </root>
        </mxGraphModel>
    </diagram>
</mxfile>